<?xml version="1.0" standalone="no"?>
<!DOCTYPE svg PUBLIC "-//W3C//DTD SVG 20010904//EN"
 "http://www.w3.org/TR/2001/REC-SVG-20010904/DTD/svg10.dtd">
<svg version="1.0" xmlns="http://www.w3.org/2000/svg"
 width="906.000000pt" height="906.000000pt" viewBox="0 0 906.000000 906.000000"
 preserveAspectRatio="xMidYMid meet">
<metadata>
Created by potrace 1.14, written by Peter Selinger 2001-2017
</metadata>
<g transform="translate(0.000000,906.000000) scale(0.100000,-0.100000)"
fill="#000000" stroke="none">
<path d="M4583 7164 c-87 -23 -188 -80 -255 -144 l-36 -35 60 -65 c151 -160
225 -300 258 -482 15 -83 18 -106 19 -146 1 -28 6 -35 34 -47 17 -7 46 -15 62
-18 93 -15 187 -64 275 -144 l63 -58 196 -2 c447 -5 483 -9 565 -60 46 -29
119 -103 153 -154 31 -48 53 -129 53 -202 0 -61 -27 -187 -40 -187 -4 0 -11
-11 -14 -26 -10 -37 -123 -145 -186 -176 l-55 -28 -340 -6 c-187 -3 -353 -6
-369 -5 -17 0 -51 -15 -88 -40 -56 -38 -127 -75 -166 -85 -9 -2 -43 -10 -74
-17 -32 -7 -62 -17 -68 -23 -5 -5 -19 -46 -30 -89 -35 -134 -126 -304 -212
-396 -18 -19 -46 -49 -62 -67 l-29 -31 40 -39 c175 -170 448 -212 673 -104 69
34 204 168 244 242 56 107 62 144 68 423 l2 97 91 1 c215 2 322 11 359 31 12
6 22 10 24 9 1 -1 22 7 47 18 72 32 144 91 198 163 31 41 79 128 71 128 -4 0
-2 6 3 13 10 12 19 41 31 102 12 57 4 199 -12 245 -9 25 -19 52 -21 61 -5 25
-52 97 -97 152 -22 26 -36 47 -31 48 4 0 73 2 153 4 148 3 195 8 265 26 22 6
42 10 44 9 2 -1 7 2 10 7 3 4 23 16 44 26 21 9 45 23 54 30 37 28 149 144 162
167 78 134 88 173 86 330 -1 144 -16 200 -75 289 -72 108 -149 175 -266 233
l-72 36 -878 0 c-724 0 -888 -2 -931 -14z"/>
<path d="M2304 7135 c-2 -5 -3 -653 -2 -1440 l3 -1430 335 2 c1028 5 998 4
1091 29 249 66 418 152 541 276 113 114 182 231 217 371 22 85 21 87 -66 110
-90 24 -178 80 -264 167 -137 139 -193 313 -166 511 31 226 213 427 447 494
36 11 68 23 71 27 11 16 -2 144 -22 218 -77 284 -293 498 -609 604 -173 58
-177 58 -493 61 -164 2 -304 6 -312 9 -8 3 -17 1 -20 -4 -3 -5 -12 -7 -21 -3
-27 10 -726 9 -730 -2z m1208 -579 c142 -17 268 -156 304 -336 4 -19 8 -237
10 -485 3 -494 -2 -555 -52 -661 -47 -101 -157 -197 -248 -218 -35 -9 -148 -9
-189 -1 -79 15 -169 68 -222 128 -89 102 -106 143 -111 265 -5 113 -7 432 -4
447 1 6 2 15 1 20 -3 16 -2 271 2 411 3 120 6 137 31 188 32 65 111 152 173
190 92 56 168 69 305 52z"/>
<path d="M4501 6149 c-115 -15 -293 -133 -341 -226 -8 -15 -18 -31 -23 -34 -7
-5 -43 -102 -54 -144 -7 -27 -8 -174 -2 -205 3 -14 12 -45 19 -70 50 -160 221
-319 365 -338 50 -6 208 -6 255 0 35 5 123 42 148 63 7 5 34 28 61 50 58 48
123 140 152 215 28 71 34 221 13 300 -35 135 -136 271 -246 332 -87 48 -232
72 -347 57z"/>
<path d="M1079 3467 c-40 -33 -48 -54 -36 -99 13 -50 54 -78 105 -72 41 5 58
17 77 54 20 38 10 80 -25 113 -38 34 -85 36 -121 4z"/>
<path d="M2402 3462 c-74 -67 -11 -185 89 -165 77 15 100 112 40 165 -42 38
-87 37 -129 0z"/>
<path d="M39 3473 c-10 -2 -19 -18 -22 -36 -3 -18 -5 -297 -6 -622 l-2 -590
163 2 c380 4 422 8 495 46 51 27 114 97 141 157 25 54 25 56 26 365 2 458 -3
485 -100 576 -80 74 -108 85 -239 95 -80 6 -438 11 -456 7z m513 -130 c56 -19
87 -42 113 -83 40 -63 47 -127 47 -405 -1 -327 -10 -384 -66 -440 -66 -65
-124 -78 -356 -79 l-145 -1 0 513 -1 513 185 -2 c122 -2 198 -7 223 -16z"/>
<path d="M4374 3466 c-18 -14 -19 -32 -20 -613 0 -329 1 -603 3 -609 3 -7 28
-11 66 -10 l61 1 -1 515 c-1 283 -2 531 -2 550 -1 19 -1 42 0 50 2 44 -11 114
-23 121 -20 13 -62 10 -84 -5z"/>
<path d="M4768 3472 c-10 -2 -19 -7 -19 -10 -13 -72 -19 -1213 -6 -1229 5 -7
13 -11 17 -8 4 2 55 5 114 6 l106 2 1 26 c0 14 3 125 5 245 2 121 5 225 8 231
3 8 48 13 143 14 76 1 165 3 198 4 l60 2 0 85 c1 47 -1 92 -3 100 -3 16 -3 16
-319 20 l-83 1 0 145 c0 108 3 144 13 145 10 1 236 4 523 8 l71 1 0 94 c0 52
-4 101 -8 108 -7 10 -89 13 -406 14 -219 0 -406 -1 -415 -4z"/>
<path d="M2853 3344 c-3 -9 -6 -60 -7 -113 l-1 -96 -50 -1 c-27 -1 -55 -2 -61
-3 -11 -1 -10 -88 1 -99 3 -4 27 -8 52 -9 26 -2 48 -4 49 -6 2 -2 6 -122 10
-268 7 -318 8 -342 23 -396 13 -47 24 -61 78 -95 34 -20 50 -23 143 -23 l105
0 1 37 c1 49 -4 55 -56 63 -73 10 -108 24 -134 56 l-25 29 2 300 2 300 35 1
c109 2 167 6 177 12 11 7 7 77 -5 89 -4 4 -53 8 -109 9 l-103 3 -1 35 c0 20 0
71 1 114 l1 77 -61 0 c-47 0 -62 -4 -67 -16z"/>
<path d="M5920 3148 c-103 -25 -176 -68 -233 -138 -74 -90 -90 -145 -90 -310
0 -137 7 -187 37 -252 68 -148 209 -233 387 -232 201 1 327 95 395 294 28 81
25 281 -5 369 -44 128 -125 207 -266 260 -39 14 -180 20 -225 9z m145 -222
c11 -3 23 -5 26 -5 3 -1 15 -9 26 -18 81 -71 94 -304 22 -402 -37 -51 -70 -67
-138 -66 -51 1 -57 4 -93 45 -21 23 -38 50 -38 59 0 9 -5 22 -12 29 -8 8 -12
48 -12 115 0 91 2 108 27 159 40 82 90 104 192 84z"/>
<path d="M6999 3148 c-19 -5 -59 -27 -87 -49 -29 -21 -54 -39 -55 -39 -2 0 -4
15 -5 32 -2 18 -6 36 -10 40 -8 7 -62 10 -167 9 l-70 -1 2 -437 c1 -241 2
-445 2 -454 1 -14 15 -17 79 -18 42 -1 94 -3 115 -4 21 -1 41 2 44 6 3 5 7
113 9 241 4 199 6 254 13 323 2 19 49 62 86 77 21 9 62 14 105 13 75 -2 72 -4
84 58 4 17 9 41 12 55 3 14 8 48 11 75 5 48 4 52 -24 64 -36 17 -98 21 -144 9z"/>
<path d="M7519 3150 c-60 -11 -144 -58 -187 -104 -83 -90 -111 -189 -108 -383
2 -113 21 -223 38 -223 4 0 8 -7 8 -15 0 -34 79 -111 147 -142 69 -32 92 -36
188 -37 68 0 88 4 132 27 29 15 55 27 58 27 9 0 -4 -70 -20 -105 -18 -36 -63
-69 -111 -79 -16 -3 -73 -7 -127 -8 -77 -2 -100 -6 -106 -18 -4 -8 -8 -56 -9
-107 l0 -92 41 -9 c46 -9 171 -8 227 2 65 12 94 19 110 26 85 39 115 58 150
92 47 47 75 97 85 153 10 54 13 975 3 981 -8 5 -151 6 -191 0 -16 -2 -35 -13
-43 -24 -14 -20 -14 -20 -74 9 -62 32 -140 42 -211 29z m182 -225 c12 -3 30
-12 41 -22 39 -35 51 -82 52 -208 1 -154 -15 -203 -75 -230 -53 -25 -97 -26
-139 -5 -74 38 -98 92 -98 224 0 124 27 198 83 229 22 12 96 25 107 20 5 -2
18 -6 29 -8z"/>
<path d="M8575 3155 c-5 -2 -36 -8 -67 -15 -32 -7 -58 -16 -58 -21 0 -4 -11
-10 -25 -13 -41 -10 -127 -105 -165 -181 -34 -69 -34 -72 -34 -205 -1 -74 2
-148 6 -165 32 -144 100 -237 214 -295 65 -32 77 -34 234 -34 129 0 138 1 192
28 68 34 148 102 148 126 0 18 -121 140 -139 140 -6 0 -20 -9 -32 -21 -40 -40
-123 -70 -185 -68 -97 4 -148 41 -179 130 l-14 39 259 1 c143 1 263 2 268 3
66 16 71 36 46 186 -9 56 -43 148 -68 188 -53 85 -156 156 -242 168 -50 7
-146 12 -159 9z m151 -243 c24 -12 75 -108 68 -127 -6 -16 -289 -14 -305 2
-32 32 38 127 104 141 45 9 99 2 133 -16z"/>
<path d="M1758 3144 c-2 -1 -23 -5 -48 -9 -89 -13 -193 -92 -232 -175 -23 -49
-34 -122 -34 -217 1 -46 -3 -83 -7 -83 -5 0 -6 -4 -2 -9 3 -6 7 -47 10 -93 7
-133 17 -158 100 -243 65 -68 142 -96 241 -90 98 5 150 24 208 77 23 21 37 23
31 6 -3 -7 -6 -38 -8 -68 -13 -180 -84 -235 -330 -253 -39 -3 -55 -28 -48 -74
l6 -38 79 -2 c121 -2 272 46 333 107 14 14 39 54 56 90 l30 65 1 495 1 495
-53 2 c-55 1 -61 -2 -68 -44 -7 -38 -11 -39 -37 -16 -31 29 -100 62 -144 69
-55 9 -82 12 -85 8z m117 -131 c11 -6 25 -12 30 -13 19 -3 62 -45 77 -75 24
-47 31 -108 30 -281 0 -143 -2 -166 -21 -202 -36 -71 -109 -111 -196 -106
-131 6 -189 61 -221 209 -10 42 -11 196 -2 251 12 77 42 142 79 173 60 51 171
72 224 44z"/>
<path d="M1081 3130 c-3 -3 -7 -206 -6 -452 l0 -447 30 -3 c16 -2 44 -2 60 0
l30 4 -3 436 c-1 240 -4 442 -7 448 -4 12 -91 24 -104 14z"/>
<path d="M2418 3130 c-17 -7 -19 -887 -1 -898 6 -4 33 -6 60 -4 l49 4 -1 451
0 451 -47 1 c-25 0 -52 -2 -60 -5z"/>
<path d="M3619 3121 c-97 -34 -176 -105 -192 -171 -8 -33 2 -47 38 -52 49 -8
88 9 112 47 31 47 90 75 167 79 140 8 214 -59 221 -199 1 -22 -2 -45 -7 -51
-5 -7 -41 -12 -86 -13 -109 -2 -232 -10 -267 -17 -58 -12 -131 -64 -178 -126
-24 -33 -28 -49 -32 -120 -2 -46 1 -100 7 -121 14 -46 59 -97 111 -126 61 -34
185 -46 278 -26 50 11 136 53 143 70 3 8 12 15 19 15 11 0 14 -11 12 -39 -3
-38 -2 -39 34 -43 20 -1 50 -1 67 2 l32 5 -3 315 c-2 173 -6 333 -10 355 -13
92 -78 171 -170 210 -58 24 -235 28 -296 6z m336 -473 c9 -6 11 -43 6 -163 -2
-54 -91 -134 -172 -153 -160 -39 -293 49 -267 176 23 109 114 148 343 147 44
-1 85 -4 90 -7z"/>
</g>
</svg>
