<?xml version="1.0" encoding="UTF-8" standalone="no"?>
<svg
   version="1.0"
   width="506.60797pt"
   height="349.57599pt"
   viewBox="0 0 506.60797 349.57599"
   preserveAspectRatio="xMidYMid"
   id="svg17"
   sodipodi:docname="hotpress.svg"
   inkscape:export-filename="hotpress.svg"
   inkscape:export-xdpi="96"
   inkscape:export-ydpi="96"
   xmlns:inkscape="http://www.inkscape.org/namespaces/inkscape"
   xmlns:sodipodi="http://sodipodi.sourceforge.net/DTD/sodipodi-0.dtd"
   xmlns="http://www.w3.org/2000/svg"
   xmlns:svg="http://www.w3.org/2000/svg">
  <defs
     id="defs17" />
  <sodipodi:namedview
     id="namedview17"
     pagecolor="#505050"
     bordercolor="#eeeeee"
     borderopacity="1"
     inkscape:showpageshadow="0"
     inkscape:pageopacity="0"
     inkscape:pagecheckerboard="0"
     inkscape:deskcolor="#d1d1d1"
     inkscape:document-units="pt" />
  <path
     d="m 55.56,312.37599 h -36.6 v 35.76 H -3.8146973e-8 v -86.4 H 18.96 v 33.6 h 36.6 v -33.6 H 74.4 v 86.4 H 55.56 Z m 61.55994,37.2 q -10.08,0 -17.399999,-4.2 -7.32,-4.2 -11.16,-11.64 -3.72,-7.44 -3.72,-16.8 0,-9.36 3.72,-16.8 3.84,-7.44 11.16,-11.64 7.319999,-4.2 17.399999,-4.2 10.08,0 17.4,4.2 7.32,4.2 11.04,11.64 3.84,7.44 3.84,16.8 0,9.36 -3.84,16.8 -3.72,7.44 -11.04,11.64 -7.32,4.2 -17.4,4.2 z m -14.52,-32.64 q 0,8.64 3.48,13.56 3.6,4.8 11.04,4.8 7.44,0 10.92,-4.8 3.6,-4.92 3.6,-13.56 0,-8.64 -3.6,-13.44 -3.48,-4.92 -10.92,-4.92 -7.44,0 -11.04,4.92 -3.48,4.8 -3.48,13.44 z m 80.15998,-50.4 v 19.2 h 15.36 v 13.08 h -15.36 v 30.72 q 0,2.88 1.2,4.2 1.32,1.32 4.56,1.32 h 9.6 v 13.08 h -14.4 q -8.88,0 -13.8,-3.48 -4.8,-3.6 -4.8,-13.32 v -32.52 h -10.68 v -13.08 h 10.68 v -19.2 z"
     id="text22"
     style="font-weight:bold;font-size:120px;font-family:Aspekta;-inkscape-font-specification:'Aspekta, Bold';opacity:0.980983;stroke:#000000;stroke-width:0"
     aria-label="Hot" />
  <path
     d="m 216.56791,261.61147 h 33.96 q 9.36,0 15.84,3.48 6.6,3.36 9.84,9.24 3.36,5.88 3.36,13.2 0,7.32 -3.36,13.2 -3.24,5.88 -9.84,9.36 -6.48,3.36 -15.84,3.36 h -25.68 v 34.56 h -8.28 z m 33.96,44.28 q 9.96,0 15.12,-5.04 5.28,-5.16 5.28,-13.32 0,-8.16 -5.28,-13.2 -5.16,-5.16 -15.12,-5.16 h -25.68 v 36.72 z m 41.63996,-20.28 h 7.68 v 11.76 q 6.48,-12.48 20.88,-12.48 h 4.68 v 7.68 h -5.04 q -8.88,0 -14.52,5.28 -5.64,5.16 -5.64,16.44 v 33.72 h -8.04 z m 69.59998,63.84 q -8.64,0 -15.12,-4.2 -6.48,-4.32 -9.96,-11.76 -3.48,-7.44 -3.48,-16.68 0,-9.24 3.48,-16.68 3.48,-7.44 9.96,-11.64 6.48,-4.32 15.12,-4.32 8.64,0 15.12,4.32 6.48,4.2 9.96,11.64 3.48,7.44 3.48,16.68 v 2.76 h -48.6 q 0.6,10.08 5.76,16.32 5.28,6.24 14.28,6.24 6.96,0 12,-3.6 5.04,-3.72 7.2,-10.08 h 8.16 q -2.76,9.6 -9.96,15.36 -7.2,5.64 -17.4,5.64 z m 20.04,-37.2 q -1.08,-9.36 -6.24,-15 -5.16,-5.76 -13.8,-5.76 -8.52,0 -13.68,5.76 -5.16,5.64 -6.24,15 z m 42.84003,37.2 q -11.76,0 -18.84,-5.64 -6.96,-5.64 -7.44,-16.2 h 8.16 q 0.6,7.56 5.16,11.28 4.56,3.6 12.96,3.6 7.56,0 12,-2.76 4.44,-2.88 4.44,-8.16 0,-3.36 -1.32,-5.4 -1.2,-2.04 -4.92,-3.48 -3.6,-1.44 -10.92,-2.64 -9.12,-1.44 -14.28,-3.84 -5.16,-2.52 -7.32,-6 -2.04,-3.6 -2.04,-8.76 0,-7.92 6.36,-12.6 6.36,-4.68 16.32,-4.68 11.76,0 18.24,5.4 6.48,5.4 6.72,15.24 h -8.04 q -0.24,-7.2 -4.56,-10.44 -4.32,-3.24 -12.36,-3.24 -6.36,0 -10.56,2.76 -4.08,2.64 -4.08,7.44 0,3.36 1.44,5.52 1.56,2.04 5.28,3.48 3.84,1.32 11.04,2.52 9,1.44 14.04,3.84 5.04,2.28 7.08,5.76 2.04,3.48 2.04,8.64 0,8.76 -6.96,13.56 -6.96,4.8 -17.64,4.8 z m 57.36008,0 q -11.76,0 -18.84,-5.64 -6.96,-5.64 -7.44,-16.2 h 8.16 q 0.6,7.56 5.16,11.28 4.56,3.6 12.96,3.6 7.56,0 12,-2.76 4.44,-2.88 4.44,-8.16 0,-3.36 -1.32,-5.4 -1.2,-2.04 -4.92,-3.48 -3.6,-1.44 -10.92,-2.64 -9.12,-1.44 -14.28,-3.84 -5.16,-2.52 -7.32,-6 -2.04,-3.6 -2.04,-8.76 0,-7.92 6.36,-12.6 6.36,-4.68 16.32,-4.68 11.76,0 18.24,5.4 6.48,5.4 6.72,15.24 h -8.04 q -0.24,-7.2 -4.56,-10.44 -4.32,-3.24 -12.36,-3.24 -6.36,0 -10.56,2.76 -4.08,2.64 -4.08,7.44 0,3.36 1.44,5.52 1.56,2.04 5.28,3.48 3.84,1.32 11.04,2.52 9,1.44 14.04,3.84 5.04,2.28 7.08,5.76 2.04,3.48 2.04,8.64 0,8.76 -6.96,13.56 -6.96,4.8 -17.64,4.8 z"
     id="text23"
     style="font-weight:300;font-size:120px;font-family:Aspekta;-inkscape-font-specification:'Aspekta, Light';opacity:0.980983;stroke:#000000;stroke-width:0"
     aria-label="Press" />
  <path
     d="m 267.15128,1.5757925 c -5.9,2.1 -13.9,7 -17.4,10.6999995 l -2.4,2.5 5.6,5.8 c 6.2,6.3 11.3,13.9 14.7,22 2.4,5.8 5.1,18.3 5.1,23.8 0,2.9 0.4,3.5 2.8,4 12.8,2.9 17.7,5.2 24.6,11.5 l 5.2,4.8 24.5,0.3 c 23.1,0.3 24.7,0.4 29.6,2.7 6.3,2.8 13.6,10.3 16.4,16.799998 3,6.9 2.8,17.6 -0.4,24.6 -3.2,7 -7.4,11.7 -13.9,15.3 l -5.3,2.9 -28,0.5 -28,0.5 -5.3,3.7 c -5.2,3.6 -11.9,6.2 -19.2,7.4 -3.4,0.6 -3.5,0.7 -5.3,8.2 -2.5,10.4 -8.9,22 -16.4,30.1 l -6.3,6.6 3.8,3.8 c 2,2.1 6.9,5.4 10.8,7.3 11.6,5.8 26.1,5.8 38,0.2 7.8,-3.6 16.6,-12.6 20.5,-21 3.3,-7.1 3.4,-7.7 3.7,-22.1 l 0.4,-14.7 h 12.3 c 6.8,0 14.8,-0.5 17.7,-1.1 30.5,-6.5 43.1,-44.7 22.3,-67.799998 l -3.7,-4.1 h 11.4 c 6.4,0 13.9,-0.5 16.8,-1 13.3,-2.5 24.50001,-11.2 30.70001,-23.8 3.7,-7.5 3.8,-7.8 3.8,-19.2 0,-11 -0.2,-11.8 -3.3,-18.3 -4.4,-8.9 -11.90001,-16.3999995 -20.70001,-20.7999995 l -7,-3.40000005 -66.5,-0.2 c -61.4,-0.2 -66.9,-0.1 -71.6,1.50000005 z"
     id="path1-5"
     style="stroke-width:0.1" />
  <path
     d="m 97.751289,110.77579 v 108.2 l 50.800001,-0.4 50.7,-0.4 10,-2.7 c 5.5,-1.5 14.29999,-4.8 19.49999,-7.4 16.8,-8.3 29.1,-23 33.5,-39.9 0.8,-3.1 1.2,-6 1,-6.4 -0.3,-0.4 -2.2,-1.1 -4.2,-1.5 -11.3,-2.1 -25,-13.3 -30.4,-24.9 -8.19999,-17.4 -4.5,-38.099998 9.1,-51.699998 6.3,-6.3 11.7,-9.5 20.5,-12 l 6,-1.6 -0.3,-5.4 c -0.3,-8.1 -2,-14.6 -5.8,-22.4 -8.3,-17.6 -24.8,-29.9 -48.19999,-36.2999995 l -9.7,-2.6 -51.2,-0.4 -51.300001,-0.3 z M 195.45129,48.575792 c 4.8,2.5 10.5,8.5 13.1,13.7 3.7,7.5 4.2,13.5 4.2,47.999998 0,20.9 -0.4,35.4 -1.1,38.7 -2.3,11 -8.3,19.4 -16.7,23.5 -4.6,2.3 -6.9,2.7 -12.9,2.7 -12.7,-0.1 -23.5,-7.1 -29.5,-19.3 -2.3,-4.6 -2.3,-4.8 -2.3,-45.1 0,-39.399998 0.1,-40.599998 2.2,-45.199998 4.1,-9 13,-16.4 22.7,-18.9 5,-1.3 16,-0.2 20.3,1.9 z"
     id="path2-5"
     style="stroke-width:0.1" />
  <path
     d="m 259.25128,78.175792 c -11.5,3.8 -19.9,10.9 -24.6,21.1 -9.4,19.999998 -0.6,43.399998 19.7,52.699998 4.1,1.9 6.6,2.3 15.4,2.3 9.3,0 11.2,-0.3 16.2,-2.7 7.5,-3.5 14.8,-10.4 18.7,-17.8 10.4,-19.6 0.8,-46.099998 -19.7,-54.099998 -6.9,-2.7 -19.8,-3.5 -25.7,-1.5 z"
     id="path3-8"
     style="stroke-width:0.1" />
</svg>
