<?xml version="1.0" encoding="UTF-8" standalone="no"?>
<svg
   version="1.0"
   width="679.80011pt"
   height="398.65085pt"
   viewBox="0 0 679.80011 398.65085"
   preserveAspectRatio="xMidYMid"
   id="svg17"
   xmlns="http://www.w3.org/2000/svg"
   xmlns:svg="http://www.w3.org/2000/svg">
  <defs
     id="defs17" />
  <g
     transform="matrix(0.1,0,0,-0.1,-464.00001,799.77578)"
     fill="#000000"
     stroke="none"
     id="g17">
    <path
       d="m 8054,7982 c -59,-21 -139,-70 -174,-107 l -24,-25 56,-58 c 62,-63 113,-139 147,-220 24,-58 51,-183 51,-238 0,-29 4,-35 28,-40 128,-29 177,-52 246,-115 l 52,-48 245,-3 c 231,-3 247,-4 296,-27 63,-28 136,-103 164,-168 30,-69 28,-176 -4,-246 -32,-70 -74,-117 -139,-153 l -53,-29 -280,-5 -280,-5 -53,-37 c -52,-36 -119,-62 -192,-74 -34,-6 -35,-7 -53,-82 -25,-104 -89,-220 -164,-301 l -63,-66 38,-38 c 20,-21 69,-54 108,-73 116,-58 261,-58 380,-2 78,36 166,126 205,210 33,71 34,77 37,221 l 4,147 h 123 c 68,0 148,5 177,11 305,65 431,447 223,678 l -37,41 h 114 c 64,0 139,5 168,10 133,25 245,112 307,238 37,75 38,78 38,192 0,110 -2,118 -33,183 -44,89 -119,164 -207,208 l -70,34 -665,2 c -614,2 -669,1 -716,-15 z"
       id="path1" />
    <path
       d="M 6360,6890 V 5808 l 508,4 507,4 100,27 c 55,15 143,48 195,74 168,83 291,230 335,399 8,31 12,60 10,64 -3,4 -22,11 -42,15 -113,21 -250,133 -304,249 -82,174 -45,381 91,517 63,63 117,95 205,120 l 60,16 -3,54 c -3,81 -20,146 -58,224 -83,176 -248,299 -482,363 l -97,26 -512,4 -513,3 z m 977,622 c 48,-25 105,-85 131,-137 37,-75 42,-135 42,-480 0,-209 -4,-354 -11,-387 -23,-110 -83,-194 -167,-235 -46,-23 -69,-27 -129,-27 -127,1 -235,71 -295,193 -23,46 -23,48 -23,451 0,394 1,406 22,452 41,90 130,164 227,189 50,13 160,2 203,-19 z"
       id="path2" />
    <path
       d="m 7975,7216 c -115,-38 -199,-109 -246,-211 -94,-200 -6,-434 197,-527 41,-19 66,-23 154,-23 93,0 112,3 162,27 75,35 148,104 187,178 104,196 8,461 -197,541 -69,27 -198,35 -257,15 z"
       id="path3" />
    <path
       d="m 5433,5204 c -21,-21 -24,-32 -20,-61 7,-42 31,-62 75,-63 69,0 100,87 46,129 -36,28 -70,26 -101,-5 z"
       id="path4" />
    <path
       d="m 6433,5204 c -21,-21 -24,-32 -20,-61 7,-42 31,-62 75,-63 69,0 100,87 46,129 -36,28 -70,26 -101,-5 z"
       id="path5" />
    <path
       d="m 4653,5214 c -10,-4 -13,-108 -13,-470 v -464 h 203 c 229,0 267,7 335,65 22,19 49,55 61,80 20,42 21,60 21,322 0,248 -2,282 -19,318 -22,50 -96,117 -148,134 -39,13 -416,26 -440,15 z m 413,-103 c 92,-42 107,-102 102,-399 -4,-235 -8,-253 -65,-306 -37,-35 -94,-46 -237,-46 h -126 v 385 385 h 143 c 117,0 149,-4 183,-19 z"
       id="path6" />
    <path
       d="m 7911,5206 c -8,-9 -10,-140 -9,-467 l 3,-454 48,-3 47,-3 v 464 c 0,415 -2,466 -16,471 -27,10 -61,7 -73,-8 z"
       id="path7" />
    <path
       d="m 8203,5213 c -10,-4 -13,-107 -13,-469 v -465 l 93,3 92,3 3,192 2,192 153,3 152,3 v 75 75 l -152,3 -153,3 v 109 110 l 228,2 227,3 3,74 c 2,53 -1,77 -10,83 -13,8 -603,10 -625,1 z"
       id="path8" />
    <path
       d="m 6777,5123 c -4,-3 -7,-42 -7,-85 v -78 h -45 -45 v -40 c 0,-22 3,-40 8,-41 4,0 23,-2 42,-2 l 35,-2 5,-245 c 6,-278 10,-294 81,-330 31,-17 55,-20 112,-18 l 72,3 v 35 c 0,35 0,35 -53,41 -67,9 -99,30 -107,71 -3,18 -5,125 -3,238 l 3,205 65,2 c 36,0 73,2 83,2 15,1 18,8 15,39 l -3,37 -82,3 -83,3 v 84 85 h -43 c -24,0 -47,-3 -50,-7 z"
       id="path9" />
    <path
       d="m 9060,4966 c -96,-28 -162,-84 -202,-171 -19,-43 -22,-67 -22,-165 0,-96 4,-124 23,-172 46,-118 154,-188 289,-188 85,0 128,12 189,53 59,39 105,114 123,197 17,80 8,211 -19,272 -28,66 -92,132 -154,158 -63,28 -164,35 -227,16 z m 159,-172 c 36,-26 61,-90 61,-163 0,-82 -16,-133 -52,-168 -24,-23 -38,-28 -79,-28 -44,0 -54,4 -79,32 -68,76 -68,247 0,315 23,23 37,28 77,28 29,0 58,-7 72,-16 z"
       id="path10" />
    <path
       d="m 9876,4965 c -21,-7 -51,-26 -66,-40 l -29,-27 -3,33 -3,34 h -90 -90 v -340 -340 l 92,-3 92,-3 3,215 c 3,210 3,215 27,240 31,33 83,50 137,43 l 43,-4 11,51 c 6,28 14,70 17,93 5,41 5,41 -33,52 -49,14 -60,13 -108,-4 z"
       id="path11" />
    <path
       d="m 10252,4965 c -86,-27 -144,-85 -177,-180 -21,-58 -24,-235 -6,-300 32,-118 120,-186 251,-193 65,-3 81,0 124,21 l 48,26 -5,-41 c -11,-79 -63,-110 -187,-109 h -88 l -4,-75 c -2,-42 -1,-80 2,-84 10,-16 126,-21 195,-9 128,22 202,68 248,154 21,39 22,50 22,415 v 375 h -85 c -76,0 -85,-2 -95,-21 -10,-21 -11,-21 -35,-4 -54,39 -134,48 -208,25 z m 187,-171 c 37,-26 51,-74 51,-174 0,-103 -14,-141 -60,-165 -40,-20 -79,-19 -118,5 -44,27 -62,74 -62,163 0,85 17,135 56,166 33,26 100,28 133,5 z"
       id="path12" />
    <path
       d="m 11025,4967 c -97,-32 -149,-79 -191,-171 -23,-51 -27,-72 -27,-155 0,-174 54,-280 170,-337 53,-26 68,-29 163,-29 88,0 113,4 155,23 51,24 115,77 115,97 0,14 -92,105 -107,105 -6,0 -16,-7 -24,-16 -22,-27 -87,-54 -129,-54 -78,0 -129,36 -145,103 l -7,27 h 215 c 250,0 233,-9 217,118 -17,134 -81,231 -179,275 -57,25 -170,32 -226,14 z m 149,-167 c 28,-10 50,-41 60,-82 l 6,-28 h -120 c -102,0 -120,2 -120,15 0,25 28,72 52,89 25,18 84,21 122,6 z"
       id="path13" />
    <path
       d="m 5910,4961 c -77,-16 -146,-74 -177,-151 -23,-58 -26,-312 -4,-374 16,-45 72,-111 112,-132 88,-45 203,-38 273,18 l 39,31 -5,-72 c -9,-121 -61,-165 -213,-179 l -70,-7 v -40 -40 l 45,-3 c 91,-7 228,36 272,85 10,10 28,41 40,68 23,49 23,56 23,420 v 370 h -45 c -43,0 -45,-1 -48,-32 l -3,-33 -37,30 c -53,42 -124,56 -202,41 z m 160,-104 c 66,-44 75,-74 75,-242 0,-137 -2,-153 -22,-185 -31,-50 -70,-70 -138,-70 -108,0 -161,57 -174,187 -22,221 38,330 180,332 32,1 56,-6 79,-22 z"
       id="path14" />
    <path
       d="m 7383,4960 c -87,-18 -158,-73 -178,-139 -9,-29 7,-41 55,-40 28,0 39,6 55,32 27,44 78,67 145,67 97,0 150,-52 150,-149 v -49 l -133,-4 c -118,-3 -138,-6 -181,-28 -27,-14 -63,-42 -80,-63 -26,-33 -31,-48 -34,-108 -5,-82 7,-117 54,-159 41,-35 90,-50 170,-50 72,0 140,21 177,56 l 27,25 v -36 -35 h 50 50 v 243 c 0,276 -8,321 -62,374 -18,18 -49,39 -68,47 -47,19 -144,27 -197,16 z m 227,-436 c 0,-75 -1,-77 -38,-114 -103,-103 -297,-68 -297,54 0,97 65,135 228,136 h 107 z"
       id="path15" />
    <path
       d="m 5440,4621 v -341 h 45 45 l -2,338 -3,337 -42,3 -43,3 z"
       id="path16" />
    <path
       d="m 6440,4620 v -340 h 45 45 v 340 340 h -45 -45 z"
       id="path17" />
  </g>
</svg>
