<?xml version="1.0" encoding="UTF-8" standalone="no"?>
<!-- Created with Inkscape (http://www.inkscape.org/) -->

<svg
   width="184.21921mm"
   height="41.569565mm"
   viewBox="0 0 184.21921 41.569565"
   version="1.1"
   id="svg1"
   inkscape:export-filename="digitalforge.svg"
   inkscape:export-xdpi="157.01927"
   inkscape:export-ydpi="157.01927"
   xmlns:inkscape="http://www.inkscape.org/namespaces/inkscape"
   xmlns:sodipodi="http://sodipodi.sourceforge.net/DTD/sodipodi-0.dtd"
   xmlns="http://www.w3.org/2000/svg"
   xmlns:svg="http://www.w3.org/2000/svg">
  <sodipodi:namedview
     id="namedview1"
     pagecolor="#505050"
     bordercolor="#eeeeee"
     borderopacity="1"
     inkscape:showpageshadow="0"
     inkscape:pageopacity="0"
     inkscape:pagecheckerboard="0"
     inkscape:deskcolor="#d1d1d1"
     inkscape:document-units="mm" />
  <defs
     id="defs1">
    <clipPath
       clipPathUnits="userSpaceOnUse"
       id="clipPath576">
      <path
         d="M 0,1120 H 1120 V 0 H 0 Z"
         transform="translate(-854.28422,-381.82571)"
         id="path576" />
    </clipPath>
    <clipPath
       clipPathUnits="userSpaceOnUse"
       id="clipPath574">
      <path
         d="M 0,1120 H 1120 V 0 H 0 Z"
         transform="translate(-781.56452,-380.96461)"
         id="path574" />
    </clipPath>
    <clipPath
       clipPathUnits="userSpaceOnUse"
       id="clipPath572">
      <path
         d="M 0,1120 H 1120 V 0 H 0 Z"
         transform="translate(-738.97582,-400.80331)"
         id="path572" />
    </clipPath>
    <clipPath
       clipPathUnits="userSpaceOnUse"
       id="clipPath570">
      <path
         d="M 0,1120 H 1120 V 0 H 0 Z"
         transform="translate(-656.63602,-387.92741)"
         id="path570" />
    </clipPath>
    <clipPath
       clipPathUnits="userSpaceOnUse"
       id="clipPath580">
      <path
         d="M 0,1120 H 1120 V 0 H 0 Z"
         transform="translate(-615.93371,-402.93551)"
         id="path580" />
    </clipPath>
    <clipPath
       clipPathUnits="userSpaceOnUse"
       id="clipPath562">
      <path
         d="M 0,1120 H 1120 V 0 H 0 Z"
         transform="translate(-555.88822,-451.72431)"
         id="path562" />
    </clipPath>
    <clipPath
       clipPathUnits="userSpaceOnUse"
       id="clipPath560">
      <path
         d="M 0,1120 H 1120 V 0 H 0 Z"
         transform="translate(-497.97151,-353.49071)"
         id="path560" />
    </clipPath>
    <clipPath
       clipPathUnits="userSpaceOnUse"
       id="clipPath564">
      <path
         d="M 0,1120 H 1120 V 0 H 0 Z"
         transform="translate(-424.98111,-423.22531)"
         id="path564" />
    </clipPath>
    <clipPath
       clipPathUnits="userSpaceOnUse"
       id="clipPath578">
      <path
         d="M 0,1120 H 1120 V 0 H 0 Z"
         transform="translate(-395.26221,-402.73051)"
         id="path578" />
    </clipPath>
    <clipPath
       clipPathUnits="userSpaceOnUse"
       id="clipPath556">
      <path
         d="M 0,1120 H 1120 V 0 H 0 Z"
         transform="translate(-395.26221,-412.39151)"
         id="path556" />
    </clipPath>
    <clipPath
       clipPathUnits="userSpaceOnUse"
       id="clipPath568">
      <path
         d="M 0,1120 H 1120 V 0 H 0 Z"
         transform="translate(-336.77761,-385.77051)"
         id="path568" />
    </clipPath>
    <clipPath
       clipPathUnits="userSpaceOnUse"
       id="clipPath566">
      <path
         d="M 0,1120 H 1120 V 0 H 0 Z"
         transform="translate(-292.85211,-402.73051)"
         id="path566" />
    </clipPath>
    <clipPath
       clipPathUnits="userSpaceOnUse"
       id="clipPath554">
      <path
         d="M 0,1120 H 1120 V 0 H 0 Z"
         transform="translate(-292.85211,-412.39151)"
         id="path554" />
    </clipPath>
    <clipPath
       clipPathUnits="userSpaceOnUse"
       id="clipPath558">
      <path
         d="M 0,1120 H 1120 V 0 H 0 Z"
         transform="translate(-236.01801,-387.57481)"
         id="path558" />
    </clipPath>
    <clipPath
       clipPathUnits="userSpaceOnUse"
       id="clipPath590">
      <path
         d="M 0,1120 H 1120 V 0 H 0 Z"
         transform="translate(-695.60861,-440.87141)"
         id="path590" />
    </clipPath>
    <clipPath
       clipPathUnits="userSpaceOnUse"
       id="clipPath582">
      <path
         d="M 0,1120 H 1120 V 0 H 0 Z"
         transform="translate(-687.05552,-412.20291)"
         id="path582" />
    </clipPath>
    <clipPath
       clipPathUnits="userSpaceOnUse"
       id="clipPath594">
      <path
         d="M 0,1120 H 1120 V 0 H 0 Z"
         transform="translate(0,-2.5000001e-5)"
         id="path594" />
    </clipPath>
    <clipPath
       clipPathUnits="userSpaceOnUse"
       id="clipPath592">
      <path
         d="M 0,1120 H 1120 V 0 H 0 Z"
         transform="translate(-733.04592,-427.63031)"
         id="path592" />
    </clipPath>
    <clipPath
       clipPathUnits="userSpaceOnUse"
       id="clipPath584">
      <path
         d="M 0,1120 H 1120 V 0 H 0 Z"
         transform="translate(-740.76562,-412.20291)"
         id="path584" />
    </clipPath>
    <clipPath
       clipPathUnits="userSpaceOnUse"
       id="clipPath586">
      <path
         d="M 0,1120 H 1120 V 0 H 0 Z"
         transform="translate(-794.47584,-412.20291)"
         id="path586" />
    </clipPath>
    <clipPath
       clipPathUnits="userSpaceOnUse"
       id="clipPath600">
      <path
         d="M 0,1120 H 1120 V 0 H 0 Z"
         transform="translate(-775.30712,-440.10551)"
         id="path600" />
    </clipPath>
    <clipPath
       clipPathUnits="userSpaceOnUse"
       id="clipPath596">
      <path
         d="M 0,1120 H 1120 V 0 H 0 Z"
         transform="translate(-790.05692,-450.08521)"
         id="path596" />
    </clipPath>
    <clipPath
       clipPathUnits="userSpaceOnUse"
       id="clipPath598">
      <path
         d="M 0,1120 H 1120 V 0 H 0 Z"
         transform="translate(-801.89042,-434.77121)"
         id="path598" />
    </clipPath>
    <clipPath
       clipPathUnits="userSpaceOnUse"
       id="clipPath626">
      <path
         d="M 0,1120 H 1120 V 0 H 0 Z"
         transform="translate(-836.75042,-444.29201)"
         id="path626" />
    </clipPath>
    <clipPath
       clipPathUnits="userSpaceOnUse"
       id="clipPath606">
      <path
         d="M 0,1120 H 1120 V 0 H 0 Z"
         transform="translate(-836.75042,-450.97961)"
         id="path606" />
    </clipPath>
    <clipPath
       clipPathUnits="userSpaceOnUse"
       id="clipPath602">
      <path
         d="M 0,1120 H 1120 V 0 H 0 Z"
         transform="translate(-836.75042,-444.29201)"
         id="path602" />
    </clipPath>
    <clipPath
       clipPathUnits="userSpaceOnUse"
       id="clipPath604">
      <path
         d="M 0,1120 H 1120 V 0 H 0 Z"
         transform="translate(-823.93255,-443.87381)"
         id="path604" />
    </clipPath>
    <clipPath
       clipPathUnits="userSpaceOnUse"
       id="clipPath630">
      <path
         d="M 0,1120 H 1120 V 0 H 0 Z"
         transform="translate(-829.29655,-441.29651)"
         id="path630" />
    </clipPath>
    <clipPath
       clipPathUnits="userSpaceOnUse"
       id="clipPath612">
      <path
         d="M 0,1120 H 1120 V 0 H 0 Z"
         transform="translate(-821.70332,-435.93251)"
         id="path612" />
    </clipPath>
    <clipPath
       clipPathUnits="userSpaceOnUse"
       id="clipPath634">
      <path
         d="M 0,1120 H 1120 V 0 H 0 Z"
         transform="translate(-844.2043,-441.29651)"
         id="path634" />
    </clipPath>
    <clipPath
       clipPathUnits="userSpaceOnUse"
       id="clipPath622">
      <path
         d="M 0,1120 H 1120 V 0 H 0 Z"
         transform="translate(-826.30105,-433.84271)"
         id="path622" />
    </clipPath>
    <clipPath
       clipPathUnits="userSpaceOnUse"
       id="clipPath632">
      <path
         d="M 0,1120 H 1120 V 0 H 0 Z"
         transform="translate(-849.5683,-449.44701)"
         id="path632" />
    </clipPath>
    <clipPath
       clipPathUnits="userSpaceOnUse"
       id="clipPath610">
      <path
         d="M 0,1120 H 1120 V 0 H 0 Z"
         transform="translate(-851.79745,-435.93251)"
         id="path610" />
    </clipPath>
    <clipPath
       clipPathUnits="userSpaceOnUse"
       id="clipPath624">
      <path
         d="M 0,1120 H 1120 V 0 H 0 Z"
         transform="translate(-849.70765,-433.84271)"
         id="path624" />
    </clipPath>
    <clipPath
       clipPathUnits="userSpaceOnUse"
       id="clipPath638">
      <path
         d="M 0,1120 H 1120 V 0 H 0 Z"
         transform="translate(-847.54802,-423.04501)"
         id="path638" />
    </clipPath>
    <clipPath
       clipPathUnits="userSpaceOnUse"
       id="clipPath636">
      <path
         d="M 0,1120 H 1120 V 0 H 0 Z"
         transform="translate(-849.56822,-418.23801)"
         id="path636" />
    </clipPath>
    <clipPath
       clipPathUnits="userSpaceOnUse"
       id="clipPath628">
      <path
         d="M 0,1120 H 1120 V 0 H 0 Z"
         transform="translate(-836.75042,-420.88551)"
         id="path628" />
    </clipPath>
    <clipPath
       clipPathUnits="userSpaceOnUse"
       id="clipPath608">
      <path
         d="M 0,1120 H 1120 V 0 H 0 Z"
         transform="translate(-836.75042,-420.88551)"
         id="path608" />
    </clipPath>
    <clipPath
       clipPathUnits="userSpaceOnUse"
       id="clipPath642">
      <path
         d="M 0,1120 H 1120 V 0 H 0 Z"
         transform="translate(-825.95275,-423.04501)"
         id="path642" />
    </clipPath>
    <clipPath
       clipPathUnits="userSpaceOnUse"
       id="clipPath640">
      <path
         d="M 0,1120 H 1120 V 0 H 0 Z"
         transform="translate(-823.93255,-423.81131)"
         id="path640" />
    </clipPath>
    <clipPath
       clipPathUnits="userSpaceOnUse"
       id="clipPath588">
      <path
         d="M 0,1120 H 1120 V 0 H 0 Z"
         transform="translate(-848.18605,-412.20291)"
         id="path588" />
    </clipPath>
  </defs>
  <g
     inkscape:label="Layer 1"
     inkscape:groupmode="layer"
     id="layer1"
     transform="translate(-10.918454,-119.63937)">
    <path
       id="path553"
       d="m 0,0 v 0 19.819 c 0,1.764 1.43,3.193 3.193,3.193 h 14.965 c 1.341,0 2.427,-1.086 2.427,-2.427 v 0 C 20.585,9.216 11.369,0 0,0"
       style="fill:#ffac00;fill-opacity:1;fill-rule:nonzero;stroke:none"
       transform="matrix(0.26783302,0,0,-0.26783302,31.477046,131.42145)"
       clip-path="url(#clipPath554)"
       sodipodi:nodetypes="ccsssssc" />
    <path
       id="path555"
       d="m 0,0 v 0 19.819 c 0,1.764 1.43,3.193 3.193,3.193 h 14.965 c 1.341,0 2.427,-1.086 2.427,-2.427 v 0 C 20.585,9.216 11.369,0 0,0"
       style="fill:#d43fad;fill-opacity:1;fill-rule:nonzero;stroke:none"
       transform="matrix(0.26783302,0,0,-0.26783302,58.905855,131.42145)"
       clip-path="url(#clipPath556)"
       sodipodi:nodetypes="ccsssssc" />
    <path
       id="path557"
       d="m 0,0 c -2.337,-1.681 -3.33,-4.65 -3.239,-7.438 0.024,-10.605 0.032,-21.217 0.073,-31.821 -0.098,-3.01 1.009,-6.085 3.305,-8.095 1.944,-1.714 4.609,-2.238 7.111,-2.542 8.119,-1.066 16.968,1.033 22.701,7.184 0.221,2.198 0.426,4.396 0.418,6.602 0.033,12.376 0.164,24.743 0.033,37.119 C 22.43,0.927 14.45,1.009 6.479,0.96 4.297,0.919 2.05,0.804 0,0 m 30.517,64.1 c 5.429,0.017 10.841,-0.385 16.262,-0.32 0.058,-42.383 -0.057,-84.767 0.017,-127.159 -5.339,-0.196 -10.678,0.05 -16.009,0.033 0.017,2.1 0.049,4.191 0.082,6.274 -10.399,-5.634 -22.569,-7.742 -34.281,-6.233 -6.044,0.91 -11.547,4.855 -14.204,10.366 -1.968,3.929 -2.255,8.407 -2.305,12.712 -0.008,12.605 -0.041,25.219 0.394,37.808 0.418,8.389 6.905,15.738 15.098,17.411 11.621,0.672 23.259,0.262 34.88,0.32 0.172,16.262 -0.041,32.525 0.066,48.788"
       style="fill:#321b7a;fill-opacity:1;fill-rule:nonzero;stroke:none"
       transform="matrix(0.26783302,0,0,-0.26783302,16.254997,138.06818)"
       clip-path="url(#clipPath558)"
       sodipodi:nodetypes="cccccccccccccccccccccc" />
    <path
       id="path559"
       d="m 0,0 c -3.551,-5.134 -1.296,-13.835 5.2,-15.287 8.094,-1.681 16.886,-0.738 24.275,3.059 1.353,0.591 1.288,2.337 1.402,3.559 0.066,3.912 0.009,7.824 0.009,11.728 C 23.152,3.043 15.426,3.157 7.701,3.084 4.888,3.067 1.771,2.387 0,0 m -13.155,49.428 c 13.54,0 27.089,0.033 40.637,-0.008 5.355,0.074 10.809,-1.829 14.631,-5.642 3.666,-3.904 5.232,-9.358 5.208,-14.631 0.065,-19.486 0,-38.98 0.123,-58.466 -5.413,0.156 -10.859,-0.222 -16.247,0.385 0.017,1.641 0.017,3.297 0.041,4.929 -10.341,-4.806 -22.159,-6.913 -33.428,-4.707 -8.307,1.632 -14.59,9.308 -15.262,17.632 -0.968,7.791 -0.582,17.157 5.946,22.586 7.127,6.102 17.107,4.995 25.825,5.126 5.536,0.254 11.154,-0.476 16.64,0.459 -0.287,4.708 0.435,9.538 -0.795,14.155 -1.222,2.945 -4.765,3.822 -7.66,3.822 -11.883,0.09 -23.767,-0.057 -35.65,0.131 0.041,4.749 -0.025,9.489 -0.009,14.229"
       style="fill:#321b7a;fill-opacity:1;fill-rule:nonzero;stroke:none"
       transform="matrix(0.26783302,0,0,-0.26783302,86.414797,147.19702)"
       clip-path="url(#clipPath560)"
       sodipodi:nodetypes="ccccccccccccccccccccccc" />
    <path
       id="path561"
       d="m 0,0 c 5.519,-0.033 11.031,-0.164 16.55,-0.016 -0.115,-42.491 -0.189,-84.981 -0.082,-127.479 -5.437,-0.033 -10.867,0.024 -16.296,-0.017 C -0.008,-85.013 0.246,-42.498 0,0"
       style="fill:#321b7a;fill-opacity:1;fill-rule:nonzero;stroke:none"
       transform="matrix(0.26783302,0,0,-0.26783302,101.9268,120.88682)"
       clip-path="url(#clipPath562)"
       sodipodi:nodetypes="ccccc" />
    <path
       id="path563"
       d="m 0,0 c 5.372,0.115 10.76,0.098 16.14,0.057 0.049,-6.79 -0.025,-13.597 0.09,-20.396 11.063,0.115 22.127,-0.074 33.182,0.09 -0.131,-4.781 -0.049,-9.57 -0.008,-14.36 -11.006,-0.066 -22.004,0.016 -33.002,0.025 0.132,-13.237 -0.008,-26.474 0.058,-39.719 -0.066,-2.796 0.213,-5.888 2.263,-8.004 1.993,-2.19 5.175,-2.239 7.923,-2.296 7.495,-0.066 14.991,-0.099 22.487,0.008 0.074,-4.773 0.14,-9.546 0.164,-14.319 -9.751,-0.214 -19.51,-0.082 -29.262,-0.14 -4.863,-0.041 -10.021,0.968 -13.712,4.355 -4.043,3.748 -6.233,9.259 -6.216,14.738 -0.14,15.213 0.27,30.426 -0.107,45.639 -1.427,-0.008 -2.854,0 -4.273,-0.024 -0.213,4.691 -0.115,9.39 -0.172,14.081 1.484,0 2.977,-0.008 4.47,-0.025 C 0.066,-13.524 -0.025,-6.766 0,0"
       style="fill:#321b7a;fill-opacity:1;fill-rule:nonzero;stroke:none"
       transform="matrix(0.26783302,0,0,-0.26783302,66.865558,128.51979)"
       clip-path="url(#clipPath564)"
       sodipodi:nodetypes="ccccccccccccccccccc" />
    <path
       id="path565"
       d="m 0,0 c 5.454,0.123 10.908,6.15 16.361,6.207 -0.139,-26.211 0.123,-58.539 0.033,-84.75 -5.396,0.041 -10.801,-0.164 -16.197,0.099 C 0.098,-52.299 0.238,-26.145 0,0"
       style="fill:#321b7a;fill-opacity:1;fill-rule:nonzero;stroke:none"
       transform="matrix(0.26783302,0,0,-0.26783302,31.477046,134.00898)"
       clip-path="url(#clipPath566)"
       sodipodi:nodetypes="ccccc" />
    <path
       id="path567"
       d="m 0,0 c -1.534,-2.075 -1.296,-4.798 -1.37,-7.242 0.132,-9.579 0.099,-19.166 0.091,-28.753 0.024,-2.985 0.139,-6.397 2.419,-8.636 3.231,-3.477 8.464,-3.387 12.827,-2.969 6.126,0.919 12.277,3.691 16.541,8.185 0.32,14.057 0.132,28.13 0.279,42.195 C 22.709,2.657 14.623,2.829 6.545,2.78 4.117,2.829 1.558,1.927 0,0 m -8.915,13.909 c 4.035,2.739 9.046,3.322 13.811,3.281 14.057,0.032 28.122,-0.041 42.187,-0.074 0.033,-25.629 -0.066,-51.249 -0.082,-76.87 0.057,-5.478 -1.001,-11.153 -4.232,-15.697 -3.33,-5.183 -9.193,-8.431 -15.32,-8.775 -14.401,0.115 -28.802,-0.098 -43.203,0.197 -0.14,4.42 -0.189,8.849 -0.279,13.278 12.26,-0.009 24.529,-0.279 36.79,0 3.354,0.024 7.307,1 8.948,4.239 1.017,3.265 0.771,6.742 0.705,10.113 -1.714,-0.722 -3.404,-1.509 -5.118,-2.239 -7.651,-3.42 -16.263,-3.478 -24.48,-3.076 -6.323,0.328 -12.425,3.879 -15.574,9.415 -2.493,4.175 -2.977,9.153 -2.862,13.909 0.155,12.786 -0.066,25.563 0.098,38.341 0.878,5.552 3.789,10.907 8.611,13.958"
       style="fill:#321b7a;fill-opacity:1;fill-rule:nonzero;stroke:none"
       transform="matrix(0.26783302,0,0,-0.26783302,43.241746,138.55143)"
       clip-path="url(#clipPath568)"
       sodipodi:nodetypes="cccccccccccccccccccccccccc" />
    <path
       id="path569"
       d="m 0,0 c -3.133,-1.189 -4.691,-4.584 -4.576,-7.783 0,-10.924 -0.017,-21.864 0.074,-32.788 -0.091,-3.986 2.763,-7.799 6.7,-8.603 5.454,-0.853 10.99,-0.5 16.484,-0.541 3.281,0.106 7.144,0.123 9.399,2.936 2.124,1.992 1.968,5.109 2.132,7.782 0.008,9.596 0.033,19.191 -0.041,28.787 -0.213,3.091 0.099,6.823 -2.55,9.029 C 24.481,1.583 19.929,0.451 16.115,0.705 10.76,0.426 5.216,1.419 0,0 m -11.301,12.261 c 6.06,3.543 13.368,2.993 20.109,2.928 8.578,-0.591 17.378,0.853 25.768,-1.485 6.61,-2.739 11.269,-9.316 11.588,-16.468 0.468,-12.318 -0.188,-24.653 0.419,-36.971 0.024,-4.486 -0.205,-9.193 -2.264,-13.277 -2.132,-4.609 -6.356,-7.685 -10.793,-9.883 -8.48,-1.304 -17.074,-0.623 -25.612,-0.803 -5.511,0.09 -11.285,-0.583 -16.533,1.484 -6.84,2.69 -11.621,9.563 -11.9,16.886 -0.402,11.424 0.18,22.857 -0.345,34.273 0.156,5.454 -0.065,11.301 2.862,16.14 1.665,2.846 3.74,5.593 6.701,7.176"
       style="fill:#321b7a;fill-opacity:1;fill-rule:nonzero;stroke:none"
       transform="matrix(0.26783302,0,0,-0.26783302,128.9104,137.97374)"
       clip-path="url(#clipPath570)"
       sodipodi:nodetypes="cccccccccccccccccccccccc" />
    <path
       id="path571"
       d="m 0,0 c 6.389,3.051 13.671,2.46 20.552,2.469 0.107,-4.815 0.041,-9.637 0.041,-14.451 -5.954,-0.164 -12.039,0.566 -17.862,-0.935 -7.717,-2.427 -14.614,-9.89 -13.655,-18.411 0,-15.082 -0.041,-30.164 -0.025,-45.246 -5.486,0.065 -10.973,-0.107 -16.451,0.196 -0.213,26.138 -0.476,52.267 -0.468,78.404 3.666,-0.173 7.48,0.049 10.998,-1.173 3.256,-2.182 3.92,-6.331 4.519,-9.899 C -8.537,-5.651 -4.699,-2.132 0,0"
       style="fill:#321b7a;fill-opacity:1;fill-rule:nonzero;stroke:none"
       transform="matrix(0.26783302,0,0,-0.26783302,150.96372,134.52515)"
       clip-path="url(#clipPath572)"
       sodipodi:nodetypes="ccccccccccc" />
    <path
       id="path573"
       d="m 0,0 c -0.303,-8.455 -0.025,-16.927 -0.139,-25.391 0.065,-3.584 -0.238,-7.209 0.418,-10.76 0.533,-2.911 2.837,-5.331 5.7,-6.077 8.086,-2.214 17.353,-0.123 23.463,5.7 1.485,1.066 1.813,2.854 1.755,4.568 0.066,13.204 0.525,26.391 0.402,39.587 -7.996,-0.115 -16,0.148 -23.98,-0.09 C 3.617,7.356 0.107,4.051 0,0 m 1.583,21.897 c 15.311,0.287 30.631,-0.016 45.943,-0.082 0.172,-20.101 -0.017,-40.202 0.115,-60.303 -0.05,-7.66 0.287,-15.32 -0.058,-22.972 -0.221,-4.346 -2.477,-8.168 -4.798,-11.711 -2.476,-2.321 -5.133,-4.74 -8.496,-5.642 -2.272,-0.525 -4.617,-0.648 -6.93,-0.837 -13.802,-0.475 -27.597,0.427 -41.399,0.263 0.008,4.535 0.016,9.062 -0.058,13.597 12.179,-0.303 24.374,-0.393 36.553,-0.32 3.223,-0.041 7.102,0.894 8.521,4.126 1.074,3.592 0.639,7.413 0.213,11.071 -3.182,-2.042 -6.462,-4.125 -10.21,-4.937 -6.233,-1.37 -12.679,-1.452 -19.019,-1.074 -6.479,0.434 -12.859,3.903 -16,9.71 -3.453,6.134 -2.502,13.433 -2.658,20.183 0.23,10.358 -0.237,20.749 0.435,31.091 0.746,9.177 8.341,17.689 17.846,17.837"
       style="fill:#321b7a;fill-opacity:1;fill-rule:nonzero;stroke:none"
       transform="matrix(0.26783302,0,0,-0.26783302,162.37037,139.83861)"
       clip-path="url(#clipPath574)"
       sodipodi:nodetypes="ccccccccccccccccccccccccccc" />
    <path
       id="path575"
       d="m 0,0 c -0.279,-5.724 -0.066,-11.465 0.008,-17.206 11.113,3.379 22.34,6.52 33.059,11.047 0.041,2.985 0.336,6.028 -0.303,8.964 -1.698,3.354 -5.889,4.01 -9.276,3.904 C 18.018,6.536 12.531,6.955 7.078,6.545 3.584,6.323 0.049,3.732 0,0 m -1.37,20.651 c 6.881,0.754 13.819,0.36 20.733,0.451 6.102,-0.107 12.359,0.533 18.297,-1.288 6.044,-2.206 10.743,-7.693 11.547,-14.147 0.845,-7.283 0.115,-14.647 0.262,-21.963 -10.595,-3.174 -21.142,-6.536 -31.779,-9.579 -5.847,-1.919 -12.056,-2.895 -17.608,-5.593 -1.501,-3.854 0.435,-8.915 4.33,-10.571 2.928,-1.23 6.184,-1.017 9.3,-1.091 11.867,0.016 23.735,-0.016 35.602,0.148 -0.009,-4.773 0.032,-9.547 -0.009,-14.32 -7.495,-0.369 -15,-0.221 -22.495,-0.254 -8.792,0.033 -17.6,-0.172 -26.375,0.435 -6.11,0.508 -11.703,4.445 -14.41,9.923 -2.099,3.879 -2.403,8.374 -2.353,12.687 0.008,11.211 -0.066,22.414 -0.025,33.625 -0.008,4.257 0.697,8.628 2.952,12.31 2.493,4.65 7.119,7.636 12.031,9.227"
       style="fill:#321b7a;fill-opacity:1;fill-rule:nonzero;stroke:none"
       transform="matrix(0.26783302,0,0,-0.26783302,181.84711,139.60798)"
       clip-path="url(#clipPath576)"
       sodipodi:nodetypes="ccccccccccccccccccccccccc" />
    <path
       id="path577"
       d="m 0,0 c 5.454,0.123 10.908,6.15 16.361,6.207 -0.139,-26.211 0.123,-58.539 0.033,-84.75 -5.396,0.041 -10.801,-0.164 -16.197,0.099 C 0.098,-52.299 0.238,-26.145 0,0"
       style="fill:#321b7a;fill-opacity:1;fill-rule:nonzero;stroke:none"
       transform="matrix(0.26783302,0,0,-0.26783302,58.905855,134.00898)"
       clip-path="url(#clipPath578)"
       sodipodi:nodetypes="ccccc" />
    <path
       id="path579"
       d="m 0,0 c 0.09,9.341 -0.057,18.69 -0.025,28.023 -0.238,3.035 1.895,6.25 5.06,6.52 5.913,0.624 11.884,0.017 17.822,0.337 0.057,4.518 0,9.045 0.172,13.564 C 15.016,48.141 6.963,49.297 -0.992,48.01 -8.956,46.517 -15.984,39.677 -16.329,31.345 -16.445,27.637 -16.491,15.418 -16.5,0.249 h -14.158 l -2.9,-14.562 h 17.06 c 0.017,-24.884 0.098,-52.646 0.128,-64.09 5.561,-0.066 11.129,-0.525 16.69,0.016 0.139,9.514 0.024,19.027 0.033,28.532 -0.55,11.826 -0.041,23.66 0.016,35.495 5.782,0.115 11.564,0.016 17.345,0.123 1.075,2.436 2.1,4.888 3.183,7.323 0.992,2.256 2.083,4.462 3.206,6.652 C 16.066,-0.049 8.037,-0.098 0,0"
       style="fill:#321b7a;fill-opacity:1;fill-rule:nonzero;stroke:none"
       transform="matrix(0.26783302,0,0,-0.26783302,118.00897,133.95408)"
       clip-path="url(#clipPath580)"
       sodipodi:nodetypes="ccccccccccccccccccc" />
    <path
       id="path581"
       d="m 0,0 h -22.871 c -6.7,0 -12.131,5.431 -12.131,12.13 v 19.919 c 0,6.699 5.431,12.13 12.131,12.13 H 0 c 6.699,0 12.13,-5.431 12.13,-12.13 V 12.13 C 12.13,5.431 6.699,0 0,0"
       style="fill:#0bc6f0;fill-opacity:1;fill-rule:nonzero;stroke:none"
       transform="matrix(0.26783302,0,0,-0.26783302,137.05774,131.47196)"
       clip-path="url(#clipPath582)"
       sodipodi:nodetypes="csssssssc" />
    <path
       id="path583"
       d="m 0,0 h -22.871 c -6.7,0 -12.131,5.431 -12.131,12.13 v 19.919 c 0,6.699 5.431,12.13 12.131,12.13 H 0 c 6.699,0 12.13,-5.431 12.13,-12.13 V 12.13 C 12.13,5.431 6.699,0 0,0"
       style="fill:#d43fad;fill-opacity:1;fill-rule:nonzero;stroke:none"
       transform="matrix(0.26783302,0,0,-0.26783302,151.44308,131.47196)"
       clip-path="url(#clipPath584)"
       sodipodi:nodetypes="csssssssc" />
    <path
       id="path585"
       d="m 0,0 h -22.871 c -6.7,0 -12.131,5.431 -12.131,12.13 v 19.919 c 0,6.699 5.431,12.13 12.131,12.13 H 0 c 6.699,0 12.13,-5.431 12.13,-12.13 V 12.13 C 12.13,5.431 6.699,0 0,0"
       style="fill:#ffac00;fill-opacity:1;fill-rule:nonzero;stroke:none"
       transform="matrix(0.26783302,0,0,-0.26783302,165.82845,131.47196)"
       clip-path="url(#clipPath586)"
       sodipodi:nodetypes="csssssssc" />
    <path
       id="path587"
       d="m 0,0 h -22.871 c -6.7,0 -12.131,5.431 -12.131,12.13 v 19.919 c 0,6.699 5.431,12.13 12.131,12.13 H 0 c 6.699,0 12.13,-5.431 12.13,-12.13 V 12.13 C 12.13,5.431 6.699,0 0,0"
       style="fill:#7316f7;fill-opacity:1;fill-rule:nonzero;stroke:none"
       transform="matrix(0.26783302,0,0,-0.26783302,180.21382,131.47196)"
       clip-path="url(#clipPath588)"
       sodipodi:nodetypes="csssssssc" />
    <path
       id="path589"
       d="m 0,0 c -0.051,-0.291 -0.304,-0.496 -0.589,-0.496 -0.034,0 -0.069,0.003 -0.104,0.009 l -4.326,0.756 c -0.326,0.057 -0.544,0.367 -0.487,0.693 0.057,0.326 0.367,0.543 0.693,0.486 L -0.487,0.693 C -0.161,0.636 0.057,0.326 0,0 m -9.322,7.888 2.885,3.31 c 0.217,0.249 0.595,0.275 0.844,0.058 0.249,-0.218 0.275,-0.596 0.058,-0.845 L -8.42,7.102 C -8.538,6.966 -8.704,6.896 -8.871,6.896 c -0.14,0 -0.28,0.049 -0.393,0.148 -0.249,0.217 -0.275,0.595 -0.058,0.844 m 2.679,-3.352 3.862,2.091 C -2.49,6.784 -2.127,6.676 -1.97,6.385 -1.812,6.094 -1.92,5.731 -2.211,5.574 L -6.072,3.483 C -6.163,3.434 -6.261,3.41 -6.357,3.41 c -0.213,0 -0.419,0.114 -0.527,0.314 -0.157,0.291 -0.049,0.654 0.241,0.812 m -0.458,-19.605 c 0,-1.096 -0.89,-1.987 -1.984,-1.987 h -10.543 c -0.153,0 -0.301,-0.059 -0.412,-0.165 l -3.891,-3.705 v 3.271 c 0,0.331 -0.268,0.599 -0.598,0.599 h -4.225 v 3.492 c 0,0.214 -0.114,0.412 -0.299,0.518 -0.185,0.107 -0.413,0.107 -0.599,0 l -4.577,-2.642 c -0.065,0.198 -0.099,0.406 -0.099,0.619 V -2.13 c 0,1.094 0.89,1.985 1.985,1.985 h 0.412 c -0.484,-1.115 -0.611,-2.394 -0.273,-3.656 0.796,-2.969 3.86,-4.737 6.83,-3.941 l 1.366,0.366 1.552,-5.788 c 0.171,-0.644 0.585,-1.183 1.165,-1.519 0.388,-0.224 0.818,-0.339 1.254,-0.339 0.217,0 0.435,0.028 0.65,0.086 l 0.795,0.214 c 0.645,0.173 1.186,0.588 1.521,1.169 0.336,0.58 0.426,1.255 0.253,1.9 l -1.438,5.364 7.513,-2.013 c 0.051,-0.014 0.103,-0.021 0.155,-0.021 0.156,0 0.309,0.062 0.423,0.176 0.151,0.151 0.21,0.371 0.155,0.578 l -1.531,5.715 2.621,1.701 c 1.017,-0.084 1.819,-0.939 1.819,-1.977 z m -22.85,-6.481 -1.262,1.563 c -0.124,0.153 -0.316,0.236 -0.513,0.22 -0.196,-0.015 -0.373,-0.126 -0.472,-0.297 l -2.481,-4.299 -1.36,0.784 2.482,4.3 c 0.098,0.171 0.106,0.38 0.021,0.558 -0.085,0.178 -0.252,0.302 -0.447,0.333 l -1.986,0.312 6.018,3.475 z m 2,23.423 5.849,1.566 2.266,-8.457 -5.848,-1.567 c -0.379,-0.102 -0.759,-0.15 -1.133,-0.15 -1.933,0 -3.707,1.291 -4.231,3.244 -0.623,2.332 0.766,4.738 3.097,5.364 z m 8.425,-8.048 1.551,-5.788 c 0.09,-0.336 0.043,-0.687 -0.132,-0.991 -0.176,-0.304 -0.458,-0.521 -0.795,-0.611 l -0.795,-0.215 c -0.337,-0.09 -0.69,-0.043 -0.994,0.133 -0.303,0.176 -0.519,0.456 -0.608,0.792 l -1.553,5.789 z m 3.771,15.424 4.32,-16.126 -7.178,1.924 -2.398,8.946 z m 5.234,-5.747 0.745,-2.783 -2.091,-1.357 -1.144,4.27 z m 1.904,-2.485 -0.86,3.215 c -0.067,0.251 -0.288,0.429 -0.547,0.443 l -3.313,0.173 -1.53,5.712 c -0.056,0.207 -0.217,0.368 -0.424,0.424 -0.206,0.055 -0.427,-0.004 -0.578,-0.155 l -6.119,-6.12 -6.273,-1.68 c -1.224,-0.328 -2.244,-1.043 -2.964,-1.977 h -1.118 c -1.755,0 -3.183,-1.428 -3.183,-3.182 v -12.939 c 0,-0.426 0.085,-0.841 0.246,-1.226 l -2.755,-1.591 c -0.22,-0.127 -0.335,-0.378 -0.289,-0.628 0.046,-0.249 0.245,-0.442 0.496,-0.482 l 2.798,-0.439 -2.345,-4.064 c -0.08,-0.138 -0.101,-0.301 -0.06,-0.454 0.041,-0.154 0.142,-0.285 0.279,-0.364 l 2.397,-1.382 c 0.094,-0.054 0.197,-0.08 0.298,-0.08 0.207,0 0.409,0.107 0.519,0.3 l 2.345,4.061 1.779,-2.202 c 0.159,-0.198 0.426,-0.273 0.665,-0.189 0.239,0.085 0.399,0.311 0.399,0.565 v 4.991 h 3.626 v -4.07 c 0,-0.239 0.143,-0.456 0.363,-0.55 0.076,-0.033 0.156,-0.048 0.236,-0.048 0.151,0 0.299,0.057 0.413,0.165 l 4.728,4.503 h 10.303 c 1.754,0 3.182,1.428 3.182,3.184 V -2.13 c 0,1.595 -1.18,2.92 -2.714,3.147 z"
       style="fill:#143c7c;fill-opacity:1;fill-rule:nonzero;stroke:none"
       transform="matrix(0.26783302,0,0,-0.26783302,139.34854,123.79358)"
       clip-path="url(#clipPath590)"
       sodipodi:nodetypes="csccsccccccccscccccccsscsssccsscscccsssccscccsccccccsscccsscccccccsccccccccscccccccccccccccccccccccccccccccsssccsccccscsccccsccscsccsssc" />
    <path
       id="path591"
       d="M 0,0 H -7.432 L -9.515,4.681 -4.5,16.385 h 0.199 V 7.841 C -5.884,7.518 -6.906,5.973 -6.583,4.389 c 0.324,-1.583 1.869,-2.604 3.452,-2.281 1.584,0.323 2.605,1.869 2.282,3.452 -0.235,1.149 -1.133,2.047 -2.282,2.281 v 8.544 h 0.199 L 2.083,4.681 Z m -8.172,-3.511 0.781,2.341 h 7.35 L 0.74,-3.511 Z M -3.716,6.73 c 0.97,0 1.756,-0.786 1.756,-1.756 0,-0.97 -0.786,-1.756 -1.756,-1.756 -0.969,0 -1.755,0.786 -1.755,1.756 0,0.97 0.786,1.756 1.755,1.756 m 1.709,10.471 c -0.093,0.215 -0.304,0.355 -0.538,0.354 H -4.886 C -5.12,17.556 -5.332,17.416 -5.425,17.201 L -10.691,4.913 c -0.065,-0.15 -0.065,-0.319 0,-0.469 l 2.253,-5.058 -1.1,-3.298 c -0.102,-0.307 0.064,-0.638 0.371,-0.74 0.059,-0.019 0.122,-0.029 0.185,-0.029 H 1.551 c 0.323,-0.001 0.585,0.261 0.585,0.584 10e-4,0.063 -0.01,0.125 -0.029,0.185 l -1.1,3.298 2.25,5.058 c 0.065,0.15 0.065,0.319 0,0.469 z"
       style="fill:#661454;fill-opacity:1;fill-rule:nonzero;stroke:none"
       transform="matrix(0.26783302,0,0,-0.26783302,149.37549,127.33999)"
       clip-path="url(#clipPath592)"
       sodipodi:nodetypes="cccccccsccccccccccccsssccccccccccsccccccc" />
    <path
       id="path593"
       d="m 746.593,432.019 h -2.341 v 2.341 h 2.341 z m -14.922,-14.158 v 0.992 c 0,0.323 -0.262,0.585 -0.585,0.585 h -3.511 c -0.324,0 -0.586,-0.262 -0.586,-0.585 v -0.992 c -6.716,0.999 -11.989,6.272 -12.988,12.988 h 0.992 c 0.323,0 0.585,0.262 0.585,0.585 v 3.511 c 0,0.323 -0.262,0.585 -0.585,0.585 h -0.992 c 1.002,6.532 6.028,11.713 12.526,12.912 0.463,-1.548 2.094,-2.427 3.642,-1.964 0.944,0.283 1.682,1.021 1.964,1.964 6.498,-1.199 11.524,-6.38 12.526,-12.912 h -0.992 c -0.323,0 -0.585,-0.262 -0.585,-0.585 v -3.511 c 0,-0.323 0.262,-0.585 0.585,-0.585 h 0.992 c -0.998,-6.717 -6.272,-11.99 -12.988,-12.988 m -1.171,-1.934 h -2.341 v 2.341 h 2.341 z m -18.433,18.433 h 2.341 v -2.341 h -2.341 z m 4.974,14.337 c -0.323,0 -0.585,0.262 -0.585,0.585 0,0.323 0.262,0.585 0.585,0.585 0.324,0 0.585,-0.262 0.585,-0.585 0,-0.323 -0.261,-0.585 -0.585,-0.585 m 12.289,2.34 c 0.97,0 1.756,-0.786 1.756,-1.755 0,-0.97 -0.786,-1.756 -1.756,-1.756 -0.97,0 -1.755,0.786 -1.755,1.756 0,0.969 0.785,1.755 1.755,1.755 m 12.289,-1.17 c 0.323,0 0.585,-0.262 0.585,-0.585 0,-0.323 -0.262,-0.585 -0.585,-0.585 -0.323,0 -0.585,0.262 -0.585,0.585 0,0.323 0.262,0.585 0.585,0.585 m 5.559,-14.337 h -1.337 c -0.844,5.931 -4.8,10.955 -10.367,13.167 h 4.497 c 0.324,-0.914 1.327,-1.393 2.241,-1.07 0.914,0.323 1.393,1.326 1.07,2.24 -0.323,0.914 -1.326,1.393 -2.241,1.07 -0.499,-0.177 -0.893,-0.57 -1.07,-1.07 h -7.774 c -0.321,1.584 -1.866,2.607 -3.449,2.285 -1.152,-0.234 -2.052,-1.134 -2.285,-2.285 h -7.769 c -0.323,0.914 -1.326,1.393 -2.24,1.07 -0.914,-0.323 -1.393,-1.326 -1.07,-2.24 0.323,-0.914 1.326,-1.393 2.24,-1.07 0.5,0.177 0.894,0.57 1.07,1.07 h 4.492 c -5.567,-2.212 -9.523,-7.236 -10.367,-13.167 h -1.337 c -1.64437,0 2.26723,-17.02613 15.507,-18.851 v -1.337 c 0,-0.324 0.262,-0.586 0.586,-0.586 h 3.511 c 0.323,0 0.585,0.262 0.585,0.586 v 1.337 c 7.364,1.015 13.154,6.805 14.17,14.17 h 1.337 c 0.323,0 0.585,0.262 0.585,0.585 v 3.511 c 0,0.323 -0.262,0.585 -0.585,0.585"
       style="fill:#661454;fill-opacity:1;fill-rule:nonzero;stroke:none"
       transform="matrix(0.26783302,0,0,-0.26783302,-46.958421,241.87351)"
       clip-path="url(#clipPath594)"
       sodipodi:nodetypes="ccccccssssccsssscccccsssscccccccccccccsssccsssccssscccccssccccccssccccscssssccsssc" />
    <path
       id="path595"
       d="M 0,0 C -0.96,0.359 -2.037,-0.125 -2.396,-1.092 L -13.563,-30.87 c -0.359,-0.96 0.125,-2.037 1.092,-2.396 0.212,-0.08 1.685,-0.41 2.396,1.092 L 1.092,-2.396 C 1.451,-1.436 0.967,-0.359 0,0"
       style="fill:#964e00;fill-opacity:1;fill-rule:nonzero;stroke:none"
       transform="matrix(0.26783302,0,0,-0.26783302,164.64492,121.32583)"
       clip-path="url(#clipPath596)"
       sodipodi:nodetypes="ccccccc" />
    <path
       id="path597"
       d="m 0,0 -6.917,6.917 c -0.293,0.293 -0.762,0.293 -1.055,0 L -9.547,5.342 c -0.294,-0.294 -0.294,-0.762 0,-1.056 l 5.605,-5.605 -5.605,-5.605 c -0.294,-0.293 -0.294,-0.762 0,-1.055 l 1.575,-1.576 c 0.293,-0.293 0.762,-0.293 1.055,0 L 0,-2.638"
       style="fill:#964e00;fill-opacity:1;fill-rule:nonzero;stroke:none"
       transform="matrix(0.26783302,0,0,-0.26783302,167.81432,125.42742)"
       clip-path="url(#clipPath598)"
       sodipodi:nodetypes="cssssccccsc" />
    <path
       id="path599"
       d="m 0,0 -1.575,1.575 c -0.293,0.293 -0.762,0.293 -1.055,0 l -6.925,-6.909 c -0.725,-0.726 -0.725,-1.905 0,-2.631 l 6.917,-6.917 c 0.293,-0.293 0.762,-0.293 1.055,0 l 1.576,1.576 c 0.293,0.293 0.293,0.762 0,1.055 l -5.606,5.605 5.606,5.606 C 0.286,-0.762 0.286,-0.286 0,0"
       style="fill:#964e00;fill-opacity:1;fill-rule:nonzero;stroke:none"
       transform="matrix(0.26783302,0,0,-0.26783302,160.69443,123.99872)"
       clip-path="url(#clipPath600)"
       sodipodi:nodetypes="cscccssscccc" />
    <path
       id="path601"
       d="m 0,0 c -5.477,0 -9.932,-4.456 -9.932,-9.932 0,-5.477 4.455,-9.932 9.932,-9.932 5.477,0 9.932,4.455 9.932,9.932 C 9.932,-4.456 5.477,0 0,0 m 0,-20.899 c -6.047,0 -10.967,4.92 -10.967,10.967 0,6.047 4.92,10.966 10.967,10.966 6.047,0 10.967,-4.919 10.967,-10.966 0,-6.047 -4.92,-10.967 -10.967,-10.967"
       style="fill:#bd78ff;fill-opacity:1;fill-rule:nonzero;stroke:none"
       transform="matrix(0.26783302,0,0,-0.26783302,177.15098,122.87744)"
       clip-path="url(#clipPath602)"
       sodipodi:nodetypes="csssccsssc" />
    <path
       id="path603"
       d="m 0,0 c -1.822,0 -3.304,1.482 -3.304,3.304 0,1.471 0.988,2.778 2.401,3.179 0.275,0.078 0.561,-0.081 0.639,-0.356 C -0.186,5.852 -0.345,5.566 -0.62,5.488 -1.591,5.213 -2.27,4.314 -2.27,3.304 c 0,-1.251 1.019,-2.27 2.27,-2.27 1.251,0 2.27,1.019 2.27,2.27 0,0.756 -0.375,1.46 -1.002,1.883 C 1.031,5.347 0.969,5.668 1.128,5.905 1.288,6.142 1.61,6.204 1.846,6.044 2.759,5.428 3.304,4.404 3.304,3.304 3.304,1.482 1.822,0 0,0"
       style="fill:#bd78ff;fill-opacity:1;fill-rule:nonzero;stroke:none"
       transform="matrix(0.26783302,0,0,-0.26783302,173.71793,122.98944)"
       clip-path="url(#clipPath604)"
       sodipodi:nodetypes="cssscssssccsc" />
    <path
       id="path605"
       d="m 0,0 c -0.867,0 -1.573,-0.706 -1.573,-1.573 0,-0.867 0.706,-1.572 1.573,-1.572 0.867,0 1.573,0.705 1.573,1.572 C 1.573,-0.706 0.867,0 0,0 m 0,-4.18 c -1.437,0 -2.607,1.17 -2.607,2.607 0,1.438 1.17,2.607 2.607,2.607 1.438,0 2.607,-1.169 2.607,-2.607 C 2.607,-3.01 1.438,-4.18 0,-4.18"
       style="fill:#bd78ff;fill-opacity:1;fill-rule:nonzero;stroke:none"
       transform="matrix(0.26783302,0,0,-0.26783302,177.15098,121.08627)"
       clip-path="url(#clipPath606)"
       sodipodi:nodetypes="csssccsssc" />
    <path
       id="path607"
       d="m 0,0 c -0.867,0 -1.573,-0.706 -1.573,-1.573 0,-0.867 0.706,-1.572 1.573,-1.572 0.867,0 1.573,0.705 1.573,1.572 C 1.573,-0.706 0.867,0 0,0 m 0,-4.18 c -1.437,0 -2.607,1.17 -2.607,2.607 0,1.438 1.17,2.607 2.607,2.607 1.438,0 2.607,-1.169 2.607,-2.607 C 2.607,-3.01 1.438,-4.18 0,-4.18"
       style="fill:#bd78ff;fill-opacity:1;fill-rule:nonzero;stroke:none"
       transform="matrix(0.26783302,0,0,-0.26783302,177.15098,129.14647)"
       clip-path="url(#clipPath608)"
       sodipodi:nodetypes="csssccsssc" />
    <path
       id="path609"
       d="m 0,0 c -0.867,0 -1.573,-0.706 -1.573,-1.573 0,-0.867 0.706,-1.572 1.573,-1.572 0.867,0 1.573,0.705 1.573,1.572 C 1.573,-0.706 0.867,0 0,0 m 0,-4.18 c -1.437,0 -2.607,1.17 -2.607,2.607 0,1.438 1.17,2.607 2.607,2.607 1.438,0 2.607,-1.169 2.607,-2.607 C 2.607,-3.01 1.438,-4.18 0,-4.18"
       style="fill:#bd78ff;fill-opacity:1;fill-rule:nonzero;stroke:none"
       transform="matrix(0.26783302,0,0,-0.26783302,181.18107,125.11638)"
       clip-path="url(#clipPath610)"
       sodipodi:nodetypes="csssccsssc" />
    <path
       id="path611"
       d="m 0,0 c -0.867,0 -1.573,-0.706 -1.573,-1.573 0,-0.867 0.706,-1.572 1.573,-1.572 0.867,0 1.573,0.705 1.573,1.572 C 1.573,-0.706 0.867,0 0,0 m 0,-4.18 c -1.438,0 -2.607,1.17 -2.607,2.607 0,1.438 1.169,2.607 2.607,2.607 3.4080216,0 3.406808,-5.214 0,-5.214"
       style="fill:#bd78ff;fill-opacity:1;fill-rule:nonzero;stroke:none"
       transform="matrix(0.26783302,0,0,-0.26783302,173.12087,125.11638)"
       clip-path="url(#clipPath612)"
       sodipodi:nodetypes="csssccssc" />
    <path
       id="path621"
       d="m 0,0 h -2.508 c -0.286,0 -0.517,0.232 -0.517,0.517 0,0.286 0.231,0.517 0.517,0.517 H 0 C 0.286,1.034 0.517,0.803 0.517,0.517 0.517,0.232 0.286,0 0,0"
       style="fill:#bd78ff;fill-opacity:1;fill-rule:nonzero;stroke:none"
       transform="matrix(0.26783302,0,0,-0.26783302,174.3523,125.6761)"
       clip-path="url(#clipPath622)"
       sodipodi:nodetypes="csssssc" />
    <path
       id="path623"
       d="m 0,0 h -2.508 c -0.286,0 -0.517,0.232 -0.517,0.517 0,0.286 0.231,0.517 0.517,0.517 H 0 C 0.286,1.034 0.517,0.803 0.517,0.517 0.517,0.232 0.286,0 0,0"
       style="fill:#bd78ff;fill-opacity:1;fill-rule:nonzero;stroke:none"
       transform="matrix(0.26783302,0,0,-0.26783302,180.62135,125.6761)"
       clip-path="url(#clipPath624)"
       sodipodi:nodetypes="csssssc" />
    <path
       id="path625"
       d="m 0,0 c -0.286,0 -0.517,0.232 -0.517,0.517 v 2.508 c 0,0.286 0.231,0.517 0.517,0.517 0.286,0 0.517,-0.231 0.517,-0.517 V 0.517 C 0.517,0.232 0.286,0 0,0"
       style="fill:#bd78ff;fill-opacity:1;fill-rule:nonzero;stroke:none"
       transform="matrix(0.26783302,0,0,-0.26783302,177.15098,122.87744)"
       clip-path="url(#clipPath626)"
       sodipodi:nodetypes="csssssc" />
    <path
       id="path627"
       d="m 0,0 c -0.286,0 -0.517,0.232 -0.517,0.517 v 2.508 c 0,0.286 0.231,0.517 0.517,0.517 0.286,0 0.517,-0.231 0.517,-0.517 V 0.517 C 0.517,0.232 0.286,0 0,0"
       style="fill:#bd78ff;fill-opacity:1;fill-rule:nonzero;stroke:none"
       transform="matrix(0.26783302,0,0,-0.26783302,177.15098,129.14647)"
       clip-path="url(#clipPath628)"
       sodipodi:nodetypes="csssssc" />
    <path
       id="path629"
       d="M 0,0 C -0.132,0 -0.265,0.05 -0.366,0.151 L -3.71,3.495 c -0.201,0.202 -0.201,0.53 0,0.732 0.202,0.202 0.53,0.202 0.732,0 L 0.366,0.883 C 0.568,0.681 0.568,0.353 0.366,0.151 0.265,0.051 0.132,0 0,0"
       style="fill:#bd78ff;fill-opacity:1;fill-rule:nonzero;stroke:none"
       transform="matrix(0.26783302,0,0,-0.26783302,175.15459,123.67973)"
       clip-path="url(#clipPath630)"
       sodipodi:nodetypes="csccsscc" />
    <path
       id="path631"
       d="m 0,0 c -1.251,0 -2.269,-1.018 -2.269,-2.269 0,-1.252 1.018,-2.27 2.269,-2.27 1.251,0 2.269,1.018 2.269,2.27 C 2.269,-1.018 1.251,0 0,0 m 0,-5.573 c -1.822,0 -3.304,1.482 -3.304,3.304 0,1.821 1.482,3.303 3.304,3.303 1.822,0 3.304,-1.482 3.304,-3.303 0,-1.822 -1.482,-3.304 -3.304,-3.304"
       style="fill:#bd78ff;fill-opacity:1;fill-rule:nonzero;stroke:none"
       transform="matrix(0.26783302,0,0,-0.26783302,180.58403,121.49676)"
       clip-path="url(#clipPath632)"
       sodipodi:nodetypes="csssccsssc" />
    <path
       id="path633"
       d="m 0,0 c -0.132,0 -0.265,0.05 -0.366,0.151 -0.202,0.202 -0.202,0.53 0,0.732 l 3.344,3.344 c 0.202,0.202 0.53,0.202 0.732,0 0.201,-0.202 0.201,-0.53 0,-0.732 L 0.366,0.151 C 0.265,0.05 0.132,0 0,0"
       style="fill:#bd78ff;fill-opacity:1;fill-rule:nonzero;stroke:none"
       transform="matrix(0.26783302,0,0,-0.26783302,179.14737,123.67973)"
       clip-path="url(#clipPath634)"
       sodipodi:nodetypes="csssccsc" />
    <path
       id="path635"
       d="m 0,0 c -1.822,0 -3.304,1.482 -3.304,3.304 0,1.822 1.482,3.304 3.304,3.304 0.417,0 0.823,-0.077 1.208,-0.228 C 1.474,6.275 1.605,5.975 1.501,5.709 1.396,5.443 1.096,5.312 0.83,5.417 0.566,5.521 0.286,5.573 0,5.573 c -1.251,0 -2.269,-1.018 -2.269,-2.269 0,-1.251 1.018,-2.27 2.269,-2.27 1.251,0 2.27,1.019 2.27,2.27 0,0.246 -0.04,0.488 -0.117,0.72 C 2.063,4.295 2.209,4.588 2.48,4.678 2.751,4.768 3.044,4.622 3.135,4.351 3.247,4.014 3.304,3.662 3.304,3.304 3.304,1.482 1.822,0 0,0"
       style="fill:#bd78ff;fill-opacity:1;fill-rule:nonzero;stroke:none"
       transform="matrix(0.26783302,0,0,-0.26783302,180.58401,129.85556)"
       clip-path="url(#clipPath636)"
       sodipodi:nodetypes="cssccssssssscsc" />
    <path
       id="path637"
       d="M 0,0 C -0.132,0 -0.265,0.051 -0.366,0.151 L -3.71,3.495 c -0.201,0.202 -0.201,0.53 0,0.732 0.202,0.202 0.53,0.202 0.732,0 L 0.366,0.883 C 0.568,0.681 0.568,0.353 0.366,0.151 0.265,0.051 0.132,0 0,0"
       style="fill:#bd78ff;fill-opacity:1;fill-rule:nonzero;stroke:none"
       transform="matrix(0.26783302,0,0,-0.26783302,180.04294,128.56809)"
       clip-path="url(#clipPath638)"
       sodipodi:nodetypes="ccccsscc" />
    <path
       id="path639"
       d="m 0,0 c -1.251,0 -2.269,-1.018 -2.269,-2.269 0,-1.252 1.018,-2.27 2.269,-2.27 1.251,0 2.269,1.018 2.269,2.27 C 2.269,-1.018 1.251,0 0,0 m 0,-5.573 c -1.822,0 -3.304,1.482 -3.304,3.304 0,1.821 1.482,3.303 3.304,3.303 1.822,0 3.304,-1.482 3.304,-3.303 0,-1.822 -1.482,-3.304 -3.304,-3.304"
       style="fill:#bd78ff;fill-opacity:1;fill-rule:nonzero;stroke:none"
       transform="matrix(0.26783302,0,0,-0.26783302,173.71793,128.36284)"
       clip-path="url(#clipPath640)"
       sodipodi:nodetypes="csssccsssc" />
    <path
       id="path641"
       d="m 0,0 c -0.132,0 -0.265,0.051 -0.366,0.151 -0.202,0.202 -0.202,0.53 0,0.732 l 3.344,3.344 c 0.202,0.202 0.53,0.202 0.732,0 0.201,-0.202 0.201,-0.53 0,-0.732 L 0.366,0.151 C 0.265,0.051 0.132,0 0,0"
       style="fill:#bd78ff;fill-opacity:1;fill-rule:nonzero;stroke:none"
       transform="matrix(0.26783302,0,0,-0.26783302,174.25901,128.56809)"
       clip-path="url(#clipPath642)"
       sodipodi:nodetypes="ccsscccc" />
  </g>
</svg>
